<svg viewBox="0 0 36 18" fill="none" xmlns="http://www.w3.org/2000/svg">
<path d="M0.646447 3.64645C0.451184 3.84171 0.451184 4.15829 0.646447 4.35355L3.82843 7.53553C4.02369 7.7308 4.34027 7.7308 4.53553 7.53553C4.7308 7.34027 4.7308 7.02369 4.53553 6.82843L1.70711 4L4.53553 1.17157C4.7308 0.976311 4.7308 0.659728 4.53553 0.464466C4.34027 0.269204 4.02369 0.269204 3.82843 0.464466L0.646447 3.64645ZM35 3.5L1 3.5V4.5L35 4.5V3.5Z" fill="#E5E5E5"/>
<path d="M35.3536 14.3536C35.5488 14.1583 35.5488 13.8417 35.3536 13.6464L32.1716 10.4645C31.9763 10.2692 31.6597 10.2692 31.4645 10.4645C31.2692 10.6597 31.2692 10.9763 31.4645 11.1716L34.2929 14L31.4645 16.8284C31.2692 17.0237 31.2692 17.3403 31.4645 17.5355C31.6597 17.7308 31.9763 17.7308 32.1716 17.5355L35.3536 14.3536ZM0 14.5H35V13.5H0V14.5Z" fill="#E5E5E5"/>
<line x1="0.5" x2="0.5" y2="7" stroke="#E5E5E5"/>
<line x1="35.5" y1="10" x2="35.5" y2="18" stroke="#E5E5E5"/>
</svg>
